<svg width="815" height="335" xmlns="http://www.w3.org/2000/svg">&lt;!-- Created by Stéphane Lepoutère--&gt;<g class="prefix__layer" transform="translate(0 80)"><path stroke="#000" d="M0 0h800v320H0z"/><path fill="none" stroke="#fff" d="M16 0v2M16 159v3M16 318v2M16 0v1M16 40v1M16 80v1M16 120v1M16 200v1M16 240v1M16 280v1M32 0v2M32 159v3M32 318v2M32 0v1M32 40v1M32 80v1M32 120v1M32 200v1M32 240v1M32 280v1M48 0v2M48 159v3M48 318v2M48 0v1M48 40v1M48 80v1M48 120v1M48 200v1M48 240v1M48 280v1M64 0v2M64 159v3M64 318v2M64 0v1M64 40v1M64 80v1M64 120v1M64 200v1M64 240v1M64 280v1M96 0v2M96 159v3M96 318v2M96 0v1M96 40v1M96 80v1M96 120v1M96 200v1M96 240v1M96 280v1M112 0v2M112 159v3M112 318v2M112 0v1M112 40v1M112 80v1M112 120v1M112 200v1M112 240v1M112 280v1M128 0v2M128 159v3M128 318v2M128 0v1M128 40v1M128 80v1M128 120v1M128 200v1M128 240v1M128 280v1M144 0v2M144 159v3M144 318v2M144 0v1M144 40v1M144 80v1M144 120v1M144 200v1M144 240v1M144 280v1M176 0v2M176 159v3M176 318v2M176 0v1M176 40v1M176 80v1M176 120v1M176 200v1M176 240v1M176 280v1M192 0v2M192 159v3M192 318v2M192 0v1M192 40v1M192 80v1M192 120v1M192 200v1M192 240v1M192 280v1M208 0v2M208 159v3M208 318v2M208 0v1M208 40v1M208 80v1M208 120v1M208 200v1M208 240v1M208 280v1M224 0v2M224 159v3M224 318v2M224 0v1M224 40v1M224 80v1M224 120v1M224 200v1M224 240v1M224 280v1M256 0v2M256 159v3M256 318v2M256 0v1M256 40v1M256 80v1M256 120v1M256 200v1M256 240v1M256 280v1M272 0v2M272 159v3M272 318v2M272 0v1M272 40v1M272 80v1M272 120v1M272 200v1M272 240v1M272 280v1M288 0v2M288 159v3M288 318v2M288 0v1M288 40v1M288 80v1M288 120v1M288 200v1M288 240v1M288 280v1M304 0v2M304 159v3M304 318v2M304 0v1M304 40v1M304 80v1M304 120v1M304 200v1M304 240v1M304 280v1M336 0v2M336 159v3M336 318v2M336 0v1M336 40v1M336 80v1M336 120v1M336 200v1M336 240v1M336 280v1M352 0v2M352 159v3M352 318v2M352 0v1M352 40v1M352 80v1M352 120v1M352 200v1M352 240v1M352 280v1M368 0v2M368 159v3M368 318v2M368 0v1M368 40v1M368 80v1M368 120v1M368 200v1M368 240v1M368 280v1M384 0v2M384 159v3M384 318v2M384 0v1M384 40v1M384 80v1M384 120v1M384 200v1M384 240v1M384 280v1M416 0v2M416 159v3M416 318v2M416 0v1M416 40v1M416 80v1M416 120v1M416 200v1M416 240v1M416 280v1M432 0v2M432 159v3M432 318v2M432 0v1M432 40v1M432 80v1M432 120v1M432 200v1M432 240v1M432 280v1M448 0v2M448 159v3M448 318v2M448 0v1M448 40v1M448 80v1M448 120v1M448 200v1M448 240v1M448 280v1M464 0v2M464 159v3M464 318v2M464 0v1M464 40v1M464 80v1M464 120v1M464 200v1M464 240v1M464 280v1M496 0v2M496 159v3M496 318v2M496 0v1M496 40v1M496 80v1M496 120v1M496 200v1M496 240v1M496 280v1M512 0v2M512 159v3M512 318v2M512 0v1M512 40v1M512 80v1M512 120v1M512 200v1M512 240v1M512 280v1M528 0v2M528 159v3M528 318v2M528 0v1M528 40v1M528 80v1M528 120v1M528 200v1M528 240v1M528 280v1M544 0v2M544 159v3M544 318v2M544 0v1M544 40v1M544 80v1M544 120v1M544 200v1M544 240v1M544 280v1M576 0v2M576 159v3M576 318v2M576 0v1M576 40v1M576 80v1M576 120v1M576 200v1M576 240v1M576 280v1M592 0v2M592 159v3M592 318v2M592 0v1M592 40v1M592 80v1M592 120v1M592 200v1M592 240v1M592 280v1M608 0v2M608 159v3M608 318v2M608 0v1M608 40v1M608 80v1M608 120v1M608 200v1M608 240v1M608 280v1M624 0v2M624 159v3M624 318v2M624 0v1M624 40v1M624 80v1M624 120v1M624 200v1M624 240v1M624 280v1M656 0v2M656 159v3M656 318v2M656 0v1M656 40v1M656 80v1M656 120v1M656 200v1M656 240v1M656 280v1M672 0v2M672 159v3M672 318v2M672 0v1M672 40v1M672 80v1M672 120v1M672 200v1M672 240v1M672 280v1M688 0v2M688 159v3M688 318v2M688 0v1M688 40v1M688 80v1M688 120v1M688 200v1M688 240v1M688 280v1M704 0v2M704 159v3M704 318v2M704 0v1M704 40v1M704 80v1M704 120v1M704 200v1M704 240v1M704 280v1M736 0v2M736 159v3M736 318v2M736 0v1M736 40v1M736 80v1M736 120v1M736 200v1M736 240v1M736 280v1M752 0v2M752 159v3M752 318v2M752 0v1M752 40v1M752 80v1M752 120v1M752 200v1M752 240v1M752 280v1M768 0v2M768 159v3M768 318v2M768 0v1M768 40v1M768 80v1M768 120v1M768 200v1M768 240v1M768 280v1M784 0v2M784 159v3M784 318v2M784 0v1M784 40v1M784 80v1M784 120v1M784 200v1M784 240v1M784 280v1M80 0v4M80 157v7M80 316v4M80 8v1M80 16v1M80 24v1M80 32v1M80 40v1M80 48v1M80 56v1M80 64v1M80 72v1M80 80v1M80 88v1M80 96v1M80 104v1M80 112v1M80 120v1M80 128v1M80 136v1M80 144v1M80 152v1M80 168v1M80 176v1M80 184v1M80 192v1M80 200v1M80 208v1M80 216v1M80 224v1M80 232v1M80 240v1M80 248v1M80 256v1M80 264v1M80 272v1M80 280v1M80 288v1M80 296v1M80 304v1M160 0v4M160 157v7M160 316v4M160 8v1M160 16v1M160 24v1M160 32v1M160 40v1M160 48v1M160 56v1M160 64v1M160 72v1M160 80v1M160 88v1M160 96v1M160 104v1M160 112v1M160 120v1M160 128v1M160 136v1M160 144v1M160 152v1M160 168v1M160 176v1M160 184v1M160 192v1M160 200v1M160 208v1M160 216v1M160 224v1M160 232v1M160 240v1M160 248v1M160 256v1M160 264v1M160 272v1M160 280v1M160 288v1M160 296v1M160 304v1M240 0v4M240 157v7M240 316v4M240 8v1M240 16v1M240 24v1M240 32v1M240 40v1M240 48v1M240 56v1M240 64v1M240 72v1M240 80v1M240 88v1M240 96v1M240 104v1M240 112v1M240 120v1M240 128v1M240 136v1M240 144v1M240 152v1M240 168v1M240 176v1M240 184v1M240 192v1M240 200v1M240 208v1M240 216v1M240 224v1M240 232v1M240 240v1M240 248v1M240 256v1M240 264v1M240 272v1M240 280v1M240 288v1M240 296v1M240 304v1M320 0v4M320 157v7M320 316v4M320 8v1M320 16v1M320 24v1M320 32v1M320 40v1M320 48v1M320 56v1M320 64v1M320 72v1M320 80v1M320 88v1M320 96v1M320 104v1M320 112v1M320 120v1M320 128v1M320 136v1M320 144v1M320 152v1M320 168v1M320 176v1M320 184v1M320 192v1M320 200v1M320 208v1M320 216v1M320 224v1M320 232v1M320 240v1M320 248v1M320 256v1M320 264v1M320 272v1M320 280v1M320 288v1M320 296v1M320 304v1M400 0v4M400 316v4M400 160v1M480 0v4M480 157v7M480 316v4M480 8v1M480 16v1M480 24v1M480 32v1M480 40v1M480 48v1M480 56v1M480 64v1M480 72v1M480 80v1M480 88v1M480 96v1M480 104v1M480 112v1M480 120v1M480 128v1M480 136v1M480 144v1M480 152v1M480 168v1M480 176v1M480 184v1M480 192v1M480 200v1M480 208v1M480 216v1M480 224v1M480 232v1M480 240v1M480 248v1M480 256v1M480 264v1M480 272v1M480 280v1M480 288v1M480 296v1M480 304v1M560 0v4M560 157v7M560 316v4M560 8v1M560 16v1M560 24v1M560 32v1M560 40v1M560 48v1M560 56v1M560 64v1M560 72v1M560 80v1M560 88v1M560 96v1M560 104v1M560 112v1M560 120v1M560 128v1M560 136v1M560 144v1M560 152v1M560 168v1M560 176v1M560 184v1M560 192v1M560 200v1M560 208v1M560 216v1M560 224v1M560 232v1M560 240v1M560 248v1M560 256v1M560 264v1M560 272v1M560 280v1M560 288v1M560 296v1M560 304v1M640 0v4M640 157v7M640 316v4M640 8v1M640 16v1M640 24v1M640 32v1M640 40v1M640 48v1M640 56v1M640 64v1M640 72v1M640 80v1M640 88v1M640 96v1M640 104v1M640 112v1M640 120v1M640 128v1M640 136v1M640 144v1M640 152v1M640 168v1M640 176v1M640 184v1M640 192v1M640 200v1M640 208v1M640 216v1M640 224v1M640 232v1M640 240v1M640 248v1M640 256v1M640 264v1M640 272v1M640 280v1M640 288v1M640 296v1M640 304v1M720 0v4M720 157v7M720 316v4M720 8v1M720 16v1M720 24v1M720 32v1M720 40v1M720 48v1M720 56v1M720 64v1M720 72v1M720 80v1M720 88v1M720 96v1M720 104v1M720 112v1M720 120v1M720 128v1M720 136v1M720 144v1M720 152v1M720 168v1M720 176v1M720 184v1M720 192v1M720 200v1M720 208v1M720 216v1M720 224v1M720 232v1M720 240v1M720 248v1M720 256v1M720 264v1M720 272v1M720 280v1M720 288v1M720 296v1M720 304v1M0 40h4M800 40h-4M398 40h4M0 8h2M399 8h2M798 8h2M0 16h2M399 16h2M798 16h2M0 24h2M399 24h2M798 24h2M0 32h2M399 32h2M798 32h2M0 80h4M800 80h-4M398 80h4M0 48h2M399 48h2M798 48h2M0 56h2M399 56h2M798 56h2M0 64h2M399 64h2M798 64h2M0 72h2M399 72h2M798 72h2M0 120h4M800 120h-4M398 120h4M0 88h2M399 88h2M798 88h2M0 96h2M399 96h2M798 96h2M0 104h2M399 104h2M798 104h2M0 112h2M399 112h2M798 112h2M0 160h4M800 160h-4M0 128h2M399 128h2M798 128h2M0 136h2M399 136h2M798 136h2M0 144h2M399 144h2M798 144h2M0 152h2M399 152h2M798 152h2M0 200h4M800 200h-4M398 200h4M0 168h2M399 168h2M798 168h2M0 176h2M399 176h2M798 176h2M0 184h2M399 184h2M798 184h2M0 192h2M399 192h2M798 192h2M0 240h4M800 240h-4M398 240h4M0 208h2M399 208h2M798 208h2M0 216h2M399 216h2M798 216h2M0 224h2M399 224h2M798 224h2M0 232h2M399 232h2M798 232h2M0 280h4M800 280h-4M398 280h4M0 248h2M399 248h2M798 248h2M0 256h2M399 256h2M798 256h2M0 264h2M399 264h2M798 264h2M0 272h2M399 272h2M798 272h2M0 288h2M399 288h2M798 288h2M0 296h2M399 296h2M798 296h2M0 304h2M399 304h2M798 304h2M0 312h2M399 312h2M798 312h2"/></g><g stroke="#fff"><path d="M0 80h15l10 10-10 10H0V85z" fill="#ff0"/><text font-family="Sans-serif" font-size="10" stroke-width="0" x="2" y="13.5" transform="translate(0 80)">CH1</text></g></svg>